<svg width="21" height="24" viewBox="0 0 21 24" fill="none" xmlns="http://www.w3.org/2000/svg">
<path fill-rule="evenodd" clip-rule="evenodd" d="M1.3715 0.638509C1.08344 0.751842 0.905718 1.02579 0.905718 1.35636C0.905718 1.60473 1.02043 1.81423 1.24664 1.97915C1.3675 2.06726 1.45026 2.07605 2.2829 2.08905L3.18783 2.10324L3.18862 4.42347C3.18951 6.93397 3.20357 7.11019 3.44445 7.62729C3.51054 7.76909 3.64695 7.99242 3.74769 8.12351C3.84983 8.25648 4.763 9.07087 5.813 9.96541C7.90728 11.7496 7.93881 11.7843 7.93788 12.3027C7.93695 12.8306 7.92428 12.8446 5.83419 14.6245C4.79821 15.5069 3.88276 16.3089 3.79985 16.4068C3.71695 16.5048 3.57653 16.7291 3.48776 16.9053C3.20152 17.4735 3.18955 17.6048 3.18862 20.1868L3.18783 22.507L2.2829 22.5212C1.45026 22.5342 1.3675 22.543 1.24664 22.6311C0.784254 22.9682 0.784347 23.5676 1.24678 23.9043L1.3783 24.0001H10.4999H19.6215L19.753 23.9043C20.2155 23.5676 20.2155 22.9682 19.7532 22.6311C19.6323 22.543 19.5495 22.5342 18.7169 22.5212L17.812 22.507L17.8112 20.3699C17.8103 18.0613 17.7934 17.8602 17.5577 17.3542C17.4929 17.2151 17.3616 16.9965 17.2659 16.8683C17.1658 16.7344 16.2202 15.8863 15.0417 14.8737C13.9141 13.9048 12.9579 13.0695 12.9167 13.0175C12.5766 12.5887 12.583 11.9914 12.9323 11.5699C12.9649 11.5306 13.9146 10.705 15.0427 9.73531C16.2124 8.72987 17.1682 7.87268 17.2669 7.74058C17.3621 7.61315 17.4929 7.39513 17.5577 7.25607C17.7934 6.7501 17.8103 6.54897 17.8112 4.24037L17.812 2.10324L18.7169 2.08905C19.5495 2.07605 19.6323 2.06726 19.7532 1.97915C20.2155 1.64208 20.2155 1.04268 19.753 0.705932L19.6215 0.610175L10.5547 0.601433C4.59398 0.595711 1.44802 0.608436 1.3715 0.638509ZM16.2651 4.28345L16.2518 6.4691L16.1349 6.67508C16.048 6.82805 15.5089 7.31906 14.039 8.58358C12.9507 9.52 11.9515 10.4 11.8187 10.5392C11.4083 10.9695 11.107 11.7171 11.107 12.3051C11.107 12.909 11.4106 13.6471 11.8429 14.0947C11.988 14.2448 12.9759 15.1137 14.0382 16.0256C15.1006 16.9374 16.0173 17.7531 16.0753 17.8382C16.1334 17.9234 16.202 18.0676 16.2277 18.1587C16.2559 18.2584 16.2746 19.1567 16.2748 20.4184L16.275 22.5125H10.4983H4.72155L4.73482 20.1437C4.74782 17.8126 4.74963 17.7721 4.84907 17.5919C4.9825 17.3501 5.12558 17.22 6.98359 15.6498C8.68628 14.2109 8.79055 14.1134 9.05849 13.7114C9.67471 12.7868 9.59157 11.4999 8.8592 10.6259C8.74976 10.4953 7.9267 9.76648 7.03016 9.00629C5.12711 7.39275 4.98334 7.2617 4.84907 7.01837C4.74963 6.83817 4.74782 6.7977 4.73482 4.46654L4.72155 2.09779H10.5H16.2785L16.2651 4.28345ZM10.2198 12.5226C10.2181 13.0358 9.93548 13.7612 9.56363 14.2062C9.45917 14.3313 8.55368 15.1341 7.55146 15.9902C6.54924 16.8464 5.68139 17.6167 5.62289 17.702L5.51652 17.8572V19.694C5.51652 21.2824 5.52634 21.5447 5.58903 21.6326L5.6615 21.7343H10.4999H15.3383L15.4108 21.6326C15.4732 21.5451 15.4833 21.2998 15.4833 19.8771C15.4833 18.2347 15.4825 18.2223 15.3777 18.0678C15.3196 17.9823 14.3923 17.1569 13.3168 16.2335C12.2414 15.3102 11.2506 14.4348 11.115 14.2882C10.6953 13.8343 10.3636 13.0375 10.361 12.4768C10.3604 12.3551 10.3399 12.3051 10.2903 12.3051C10.2381 12.3051 10.2203 12.3601 10.2198 12.5226Z" fill="#DE596D"/>
</svg>
