<svg width="30" height="30" viewBox="0 0 30 30" fill="none" xmlns="http://www.w3.org/2000/svg">
<path d="M10 4H4V10H10V4Z" fill="#DE596D"/>
<path d="M10 12H4V18H10V12Z" fill="#DE596D"/>
<path d="M18 12H12V18H18V12Z" fill="#DE596D"/>
<path d="M10 20H4V26H10V20Z" fill="#DE596D"/>
<path d="M18 4H12V10H18V4Z" fill="#DE596D"/>
<path d="M26 4H20V10H26V4Z" fill="#DE596D"/>
<path fill-rule="evenodd" clip-rule="evenodd" d="M23 17C19.6863 17 17 19.6863 17 23C17 26.3137 19.6863 29 23 29C26.3137 29 29 26.3137 29 23C29 19.6863 26.3137 17 23 17ZM16 23C16 19.134 19.134 16 23 16C26.866 16 30 19.134 30 23C30 26.866 26.866 30 23 30C19.134 30 16 26.866 16 23Z" fill="#DE596D"/>
<path fill-rule="evenodd" clip-rule="evenodd" d="M26 12H20V16.6736C20.9093 16.2417 21.9264 16 23 16C24.0736 16 25.0907 16.2417 26 16.6736V12Z" fill="#DE596D"/>
<path fill-rule="evenodd" clip-rule="evenodd" d="M16.6736 20H12V26H16.6736C16.2417 25.0907 16 24.0736 16 23C16 21.9264 16.2417 20.9093 16.6736 20Z" fill="#DE596D"/>
<path fill-rule="evenodd" clip-rule="evenodd" d="M23.5 19V23.2071L21.3536 25.3536L20.6465 24.6464L22.5 22.7929V19H23.5Z" fill="#DE596D"/>
</svg>
