<svg width="38" height="35" viewBox="0 0 38 35" fill="none" xmlns="http://www.w3.org/2000/svg">
<path d="M3.48267 5.73412C4.9668 5.73412 6.16992 4.52373 6.16992 3.03064C6.16992 1.53754 4.9668 0.327148 3.48267 0.327148C1.99854 0.327148 0.79541 1.53754 0.79541 3.03064C0.79541 4.52373 1.99854 5.73412 3.48267 5.73412Z" fill="#FFFEF6"/>
<path d="M3.51181 8.58297C2.75783 8.58297 1.72353 8.54407 1.28854 8.54407C1.06621 8.54407 0.785889 8.81637 0.785889 9.09838V34.0133C0.785889 34.5092 1.19188 34.7718 1.81053 34.7718H14.5412C22.3613 34.7718 30.3747 26.1362 30.3747 18.405C30.3747 10.6738 24.2075 6.3949 18.5527 7.04646C24.0142 10.3626 24.9905 14.6415 24.9035 18.405C24.8071 22.5769 21.7233 29.4134 11.8152 29.4134H6.64372C6.42139 29.4134 6.2184 29.287 6.2184 28.7522V9.62352C6.2184 9.36095 6.29573 8.96224 6.02507 8.67049C5.75441 8.37875 4.26579 8.58297 3.51181 8.58297Z" fill="#FFFEFF"/>
<path d="M10.1527 28.2471C9.3987 28.2471 8.3644 28.286 7.92941 28.286C7.70708 28.286 7.42676 28.0137 7.42676 27.7316V1.08574C7.42676 0.589779 7.83275 0.32721 8.4514 0.32721C9.07004 0.32721 12.4823 0.0743856 21.4624 0.32721C29.2794 0.547301 37.0156 8.62246 37.0156 16.694C37.0156 24.4252 31.8924 34.3737 20.3024 34.6654C32.5207 27.79 31.5444 18.7849 31.5444 16.694C31.5444 12.5209 28.9055 5.68556 18.4561 5.68556H13.2846C13.0623 5.68556 12.8593 5.81198 12.8593 6.34685V27.2065C12.8593 27.4691 12.9366 27.8678 12.6659 28.1595C12.3953 28.4513 10.9067 28.2471 10.1527 28.2471Z" fill="#DA9096"/>
</svg>
